<svg id="Layer_1" data-name="Layer 1" xmlns="http://www.w3.org/2000/svg" viewBox="0 0 575.99 512.07"><title>edit</title><path d="M402.3,345l32-32a8,8,0,0,1,13.7,5.71V464.07a48,48,0,0,1-48,48H48a48,48,0,0,1-48-48v-352a48,48,0,0,1,48-48H321.5a8.05,8.05,0,0,1,5.7,13.7l-32,32a7.93,7.93,0,0,1-5.7,2.3H48v352H400V350.57A7.87,7.87,0,0,1,402.3,345Zm156.6-201.8L296.3,405.78l-90.4,10a41.32,41.32,0,0,1-45.6-45.6l10-90.4L432.9,17.17a58.38,58.38,0,0,1,82.7,0l43.2,43.21a58.58,58.58,0,0,1,.1,82.8Zm-98.8,30.9L402,116,216.2,301.87l-7.3,65.3,65.3-7.3Zm64.8-79.69-43.2-43.2a10.44,10.44,0,0,0-14.8,0L436,82.07l58.1,58.11,30.9-30.9A10.65,10.65,0,0,0,524.9,94.38Z"/></svg>