<svg id="Layer_1" data-name="Layer 1" xmlns="http://www.w3.org/2000/svg" viewBox="0 0 496 496"><defs><style>.cls-1{fill:#ca4a1f;}</style></defs><title>times-circle-red</title><path class="cls-1" d="M248,0C111,0,0,111,0,248S111,496,248,496,496,385,496,248,385,0,248,0Zm0,448A200,200,0,1,1,448,248,199.94,199.94,0,0,1,248,448ZM349.8,185.8,287.6,248l62.2,62.2a12,12,0,0,1,0,17l-22.6,22.6a12,12,0,0,1-17,0L248,287.6l-62.2,62.2a12,12,0,0,1-17,0l-22.6-22.6a12,12,0,0,1,0-17L208.4,248l-62.2-62.2a12,12,0,0,1,0-17l22.6-22.6a12,12,0,0,1,17,0L248,208.4l62.2-62.2a12,12,0,0,1,17,0l22.6,22.6a12,12,0,0,1,0,17Z"/></svg>